<?xml version="1.0" encoding="UTF-8"?>
<svg id="Layer_1" data-name="Layer 1" xmlns="http://www.w3.org/2000/svg" xmlns:xlink="http://www.w3.org/1999/xlink" viewBox="0 0 813.87 778.81">
  <defs>
    <style>
      .cls-1 {
        fill: none;
      }

      .cls-2 {
        fill: url(#linear-gradient);
      }

      .cls-3 {
        fill: #faf9f7;
      }

      .cls-4 {
        fill: #1abbbc;
      }

      .cls-5 {
        clip-path: url(#clippath);
      }
    </style>
    <clipPath id="clippath">
      <path class="cls-1" d="M737.38,600.85l-2.64,4.46c-26.64,45.55-63.48,82.81-107.37,110.38h-.05c-60.37-10.93-123.02-35.34-180.07-87.68,34.3-2.69,67.52-12.95,96.44-30.83,55.86-34.46,127.01-34.82,185.72-.98l7.98,4.66Z"/>
    </clipPath>
    <linearGradient id="linear-gradient" x1="447.24" y1="639.01" x2="737.38" y2="639.01" gradientUnits="userSpaceOnUse">
      <stop offset="0" stop-color="#ef4f3f"/>
      <stop offset="1" stop-color="#f69b79"/>
    </linearGradient>
  </defs>
  <g>
    <path class="cls-3" d="M738.37,197.17l-4.51,2.64c-59.54,34.36-133.38,33.94-192.61-1.04-68.56-40.52-160.18-39.23-233.4,3.32-68.04,39.43-107.63,105.4-109.91,182.09-50.94-29.33-99.18-44.93-139.19-49.49,3.89-24.2,10.26-47.83,18.97-70.84l-1.19-1.09,2.75-3.06C121.92,133.23,239.5,45.18,386.41,29.84c147.63-15.39,281.49,47,349.32,162.87l2.64,4.46Z"/>
    <g class="cls-5">
      <polygon class="cls-2" points="733.56 562.34 729.75 562.34 725.93 562.34 722.11 562.34 718.29 562.34 714.48 562.34 710.66 562.34 706.84 562.34 703.02 562.34 699.21 562.34 695.39 562.34 691.57 562.34 687.75 562.34 683.93 562.34 680.12 562.34 676.3 562.34 672.48 562.34 668.66 562.34 664.85 562.34 661.03 562.34 657.21 562.34 653.39 562.34 649.58 562.34 645.76 562.34 641.94 562.34 638.12 562.34 634.31 562.34 630.49 562.34 626.67 562.34 622.85 562.34 619.04 562.34 615.22 562.34 611.4 562.34 607.58 562.34 603.77 562.34 599.95 562.34 596.13 562.34 592.31 562.34 588.49 562.34 584.68 562.34 580.86 562.34 577.04 562.34 573.22 562.34 569.41 562.34 565.59 562.34 561.77 562.34 557.95 562.34 554.14 562.34 550.32 562.34 546.5 562.34 542.68 562.34 538.87 562.34 535.05 562.34 531.23 562.34 527.41 562.34 523.59 562.34 519.78 562.34 515.96 562.34 512.14 562.34 508.32 562.34 504.51 562.34 500.69 562.34 496.87 562.34 493.05 562.34 489.24 562.34 485.42 562.34 481.6 562.34 477.78 562.34 473.97 562.34 470.15 562.34 466.33 562.34 462.51 562.34 458.7 562.34 454.88 562.34 451.06 562.34 447.24 562.34 447.24 715.68 451.06 715.68 454.88 715.68 458.7 715.68 462.51 715.68 466.33 715.68 470.15 715.68 473.97 715.68 477.78 715.68 481.6 715.68 485.42 715.68 489.24 715.68 493.05 715.68 496.87 715.68 500.69 715.68 504.51 715.68 508.32 715.68 512.14 715.68 515.96 715.68 519.78 715.68 523.59 715.68 527.41 715.68 531.23 715.68 535.05 715.68 538.87 715.68 542.68 715.68 546.5 715.68 550.32 715.68 554.14 715.68 557.95 715.68 561.77 715.68 565.59 715.68 569.41 715.68 573.22 715.68 577.04 715.68 580.86 715.68 584.68 715.68 588.49 715.68 592.31 715.68 596.13 715.68 599.95 715.68 603.77 715.68 607.58 715.68 611.4 715.68 615.22 715.68 619.04 715.68 622.85 715.68 626.67 715.68 630.49 715.68 634.31 715.68 638.12 715.68 641.94 715.68 645.76 715.68 649.58 715.68 653.39 715.68 657.21 715.68 661.03 715.68 664.85 715.68 668.66 715.68 672.48 715.68 676.3 715.68 680.12 715.68 683.93 715.68 687.75 715.68 691.57 715.68 695.39 715.68 699.21 715.68 703.02 715.68 706.84 715.68 710.66 715.68 714.48 715.68 718.29 715.68 722.11 715.68 725.93 715.68 729.75 715.68 733.56 715.68 737.38 715.68 737.38 562.34 733.56 562.34"/>
    </g>
    <g>
      <path class="cls-4" d="M627.37,715.68c-88.24-11.47-170-59.16-225.18-128.84-34.88-46.53-71.06-92.87-114.86-131.44-64.57-57.87-141.86-106.27-228.58-120.7,29.28,2.26,57.99,10.06,85.57,20.33,96.69,37.51,177.23,108.67,239.32,190.56,58.28,87.25,139.39,149.06,243.73,170.09h0Z"/>
      <path class="cls-4" d="M578.86,740.86c-70.14-15.88-134.23-56.42-181.38-110.67,0-.05-.04-2.66-.04-2.71,0,0,1.69,4.51,1.69,4.51-19.52-22.78-36.55-45.61-56.07-67.17-55.23-63.45-130.54-126.04-200.37-160.69,0,0-.15,0-.15,0l-1-.03-.65-.31c-27.45-13.11-56.3-23.4-86.6-27.59,29.35-.37,68.97,11.22,90.07,19.99,82.18,33.63,151.93,92.42,210.16,158.52,19.34,21.73,37.04,45.73,55,68.25,0,0,1.72,2.17,1.72,2.17-.01.04-.02,2.35-.03,2.39,0,0-1.68-4.5-1.68-4.5,11.23,13.16,23.12,25.76,35.8,37.54,38.42,35.7,83.92,62.39,133.52,80.3h0Z"/>
      <path class="cls-4" d="M53.2,418.13c116.97-.62,236.52,110.74,309.2,194.31,30.58,37.69,62.23,77.45,101.49,106.47,19.46,14.98,40.45,28.05,62.43,39.62-58.94-21.19-110.64-60.63-150.67-108.56-76.36-88.64-201.84-217.78-322.45-231.84h0Z"/>
      <path class="cls-4" d="M57.3,460.26c85.63-2.88,169.27,67.23,229.24,122,32,30.28,62.1,62.59,90.4,96.33,14.01,16.86,28.21,32.99,44.1,47.92,15.68,15.06,32.66,28.81,50.46,41.71-29.44-15-56.51-35-80.51-57.83-23.58-23.09-45.04-47.89-68.44-71.05-18.82-19.45-38.76-38.49-58.5-57.01-56.46-50.15-129.12-113.95-206.75-122.08h0Z"/>
      <path class="cls-4" d="M66.32,502.39c109.79-4.32,243.28,149.6,311.9,227.29,12.06,14.14,25.07,27.5,38.56,40.56-15.67-10.38-30.26-22.4-44.07-35.28-39.06-37.05-81.61-79.85-121.2-116.3-51.65-46.16-114.4-106.32-185.19-116.28h0Z"/>
      <path class="cls-4" d="M80.57,544.83c81.21,2.13,168.09,95.92,221.62,152.04,20.59,22.18,40.68,44.76,60.02,68.2-47.54-37.58-90.11-80.48-134.59-121.39-44.06-39.45-87.99-83.55-147.05-98.85h0Z"/>
      <path class="cls-4" d="M100.67,589.45c74.34,10.19,152.22,102.44,196.5,159.71-17.35-12.78-33.5-26.83-49.3-41.13-23.6-21.26-46.4-43.49-70.04-64.55-23.65-20.86-47.88-40.86-77.16-54.03h0Z"/>
      <path class="cls-4" d="M142.96,649.25c21.18,7.05,38.64,22.01,53,38.64,4.73,5.6,9.1,11.53,12.66,18.21-25.11-15.17-45.97-35.27-65.66-56.85h0Z"/>
    </g>
  </g>
  <g>
    <path class="cls-4" d="M688.92,512.72h-45.86l-14.64-36.1h-28.95c-41.95,0-77.73,4.23-90.41,36.1h-45.86l92.37-227.66h40.98l92.37,227.66ZM612.49,437.59l-36.43-90.41-43.91,108.63c19.19-13.98,41.63-18.21,67.32-18.21h13.01Z"/>
    <path class="cls-4" d="M695.76,512.72v-227.66h42.61v227.66h-42.61Z"/>
  </g>
</svg>