<?xml version="1.0" encoding="UTF-8"?>
<svg id="Layer_1" data-name="Layer 1" xmlns="http://www.w3.org/2000/svg" xmlns:xlink="http://www.w3.org/1999/xlink" viewBox="0 0 811.14 778.81">
  <defs>
    <style>
      .cls-1 {
        fill: none;
      }

      .cls-2 {
        fill: url(#linear-gradient);
      }

      .cls-3 {
        fill: #11294d;
      }

      .cls-4 {
        fill: #1abbbc;
      }

      .cls-5 {
        clip-path: url(#clippath);
      }
    </style>
    <clipPath id="clippath">
      <path class="cls-1" d="M737.39,600.98l-2.64,4.46c-26.64,45.55-63.48,82.81-107.37,110.38h-.05c-60.37-10.93-123.02-35.34-180.07-87.68,34.3-2.69,67.52-12.95,96.44-30.83,55.86-34.46,127.01-34.82,185.72-.98l7.98,4.66Z"/>
    </clipPath>
    <linearGradient id="linear-gradient" x1="447.25" y1="639.14" x2="737.39" y2="639.14" gradientUnits="userSpaceOnUse">
      <stop offset="0" stop-color="#ef4f3f"/>
      <stop offset="1" stop-color="#f69b79"/>
    </linearGradient>
  </defs>
  <g>
    <path class="cls-3" d="M738.38,197.3l-4.51,2.64c-59.54,34.36-133.38,33.94-192.61-1.04-68.56-40.52-160.18-39.23-233.4,3.32-68.04,39.43-107.63,105.4-109.91,182.09-50.94-29.33-99.18-44.93-139.19-49.49,3.89-24.2,10.26-47.83,18.97-70.84l-1.19-1.09,2.75-3.06C121.93,133.35,239.51,45.31,386.42,29.97c147.63-15.39,281.49,47,349.32,162.87l2.64,4.46Z"/>
    <g class="cls-5">
      <polygon class="cls-2" points="733.57 562.47 729.76 562.47 725.94 562.47 722.12 562.47 718.3 562.47 714.49 562.47 710.67 562.47 706.85 562.47 703.03 562.47 699.22 562.47 695.4 562.47 691.58 562.47 687.76 562.47 683.94 562.47 680.13 562.47 676.31 562.47 672.49 562.47 668.67 562.47 664.86 562.47 661.04 562.47 657.22 562.47 653.4 562.47 649.59 562.47 645.77 562.47 641.95 562.47 638.13 562.47 634.32 562.47 630.5 562.47 626.68 562.47 622.86 562.47 619.04 562.47 615.23 562.47 611.41 562.47 607.59 562.47 603.77 562.47 599.96 562.47 596.14 562.47 592.32 562.47 588.5 562.47 584.69 562.47 580.87 562.47 577.05 562.47 573.23 562.47 569.42 562.47 565.6 562.47 561.78 562.47 557.96 562.47 554.14 562.47 550.33 562.47 546.51 562.47 542.69 562.47 538.87 562.47 535.06 562.47 531.24 562.47 527.42 562.47 523.6 562.47 519.79 562.47 515.97 562.47 512.15 562.47 508.33 562.47 504.52 562.47 500.7 562.47 496.88 562.47 493.06 562.47 489.25 562.47 485.43 562.47 481.61 562.47 477.79 562.47 473.98 562.47 470.16 562.47 466.34 562.47 462.52 562.47 458.7 562.47 454.89 562.47 451.07 562.47 447.25 562.47 447.25 715.81 451.07 715.81 454.89 715.81 458.7 715.81 462.52 715.81 466.34 715.81 470.16 715.81 473.98 715.81 477.79 715.81 481.61 715.81 485.43 715.81 489.25 715.81 493.06 715.81 496.88 715.81 500.7 715.81 504.52 715.81 508.33 715.81 512.15 715.81 515.97 715.81 519.79 715.81 523.6 715.81 527.42 715.81 531.24 715.81 535.06 715.81 538.87 715.81 542.69 715.81 546.51 715.81 550.33 715.81 554.14 715.81 557.96 715.81 561.78 715.81 565.6 715.81 569.42 715.81 573.23 715.81 577.05 715.81 580.87 715.81 584.69 715.81 588.5 715.81 592.32 715.81 596.14 715.81 599.96 715.81 603.77 715.81 607.59 715.81 611.41 715.81 615.23 715.81 619.04 715.81 622.86 715.81 626.68 715.81 630.5 715.81 634.32 715.81 638.13 715.81 641.95 715.81 645.77 715.81 649.59 715.81 653.4 715.81 657.22 715.81 661.04 715.81 664.86 715.81 668.67 715.81 672.49 715.81 676.31 715.81 680.13 715.81 683.94 715.81 687.76 715.81 691.58 715.81 695.4 715.81 699.22 715.81 703.03 715.81 706.85 715.81 710.67 715.81 714.49 715.81 718.3 715.81 722.12 715.81 725.94 715.81 729.76 715.81 733.57 715.81 737.39 715.81 737.39 562.47 733.57 562.47"/>
    </g>
    <g>
      <path class="cls-4" d="M627.38,715.81c-88.24-11.47-170-59.16-225.18-128.84-34.88-46.53-71.06-92.87-114.86-131.44-64.57-57.87-141.86-106.27-228.58-120.7,29.28,2.26,57.99,10.06,85.57,20.33,96.69,37.51,177.23,108.67,239.32,190.56,58.28,87.25,139.39,149.06,243.73,170.09h0Z"/>
      <path class="cls-4" d="M578.87,740.99c-70.14-15.88-134.23-56.42-181.38-110.67,0-.05-.04-2.66-.04-2.71,0,0,1.69,4.51,1.69,4.51-19.52-22.78-36.55-45.61-56.07-67.17-55.23-63.45-130.54-126.04-200.37-160.69,0,0-.15,0-.15,0l-1-.03-.65-.31c-27.45-13.11-56.3-23.4-86.6-27.59,29.35-.37,68.97,11.22,90.07,19.99,82.18,33.63,151.93,92.42,210.16,158.52,19.34,21.73,37.04,45.73,55,68.25,0,0,1.72,2.17,1.72,2.17-.01.04-.02,2.35-.03,2.39,0,0-1.68-4.5-1.68-4.5,11.23,13.16,23.12,25.76,35.8,37.54,38.42,35.7,83.92,62.39,133.52,80.3h0Z"/>
      <path class="cls-4" d="M53.21,418.26c116.97-.62,236.52,110.74,309.2,194.31,30.58,37.69,62.23,77.45,101.49,106.47,19.46,14.98,40.45,28.05,62.43,39.62-58.94-21.19-110.64-60.63-150.67-108.56-76.36-88.64-201.84-217.78-322.45-231.84h0Z"/>
      <path class="cls-4" d="M57.31,460.39c85.63-2.88,169.27,67.23,229.24,122,32,30.28,62.1,62.59,90.4,96.33,14.01,16.86,28.21,32.99,44.1,47.92,15.68,15.06,32.66,28.81,50.46,41.71-29.44-15-56.51-35-80.51-57.83-23.58-23.09-45.04-47.89-68.44-71.05-18.82-19.45-38.76-38.49-58.5-57.01-56.46-50.15-129.12-113.95-206.75-122.08h0Z"/>
      <path class="cls-4" d="M66.32,502.52c109.79-4.32,243.28,149.6,311.9,227.29,12.06,14.14,25.07,27.5,38.56,40.56-15.67-10.38-30.26-22.4-44.07-35.28-39.06-37.05-81.61-79.85-121.2-116.3-51.65-46.16-114.4-106.32-185.19-116.28h0Z"/>
      <path class="cls-4" d="M80.57,544.96c81.21,2.13,168.09,95.92,221.62,152.04,20.59,22.18,40.68,44.76,60.02,68.2-47.54-37.58-90.11-80.48-134.59-121.39-44.06-39.45-87.99-83.55-147.05-98.85h0Z"/>
      <path class="cls-4" d="M100.68,589.58c74.34,10.19,152.22,102.44,196.5,159.71-17.35-12.78-33.5-26.83-49.3-41.13-23.6-21.26-46.4-43.49-70.04-64.55-23.65-20.86-47.88-40.86-77.16-54.03h0Z"/>
      <path class="cls-4" d="M142.97,649.38c21.18,7.05,38.64,22.01,53,38.64,4.73,5.6,9.1,11.53,12.66,18.21-25.11-15.17-45.97-35.27-65.66-56.85h0Z"/>
    </g>
  </g>
  <g>
    <path class="cls-4" d="M688.93,512.85h-45.86l-14.64-36.1h-28.95c-41.95,0-77.73,4.23-90.41,36.1h-45.86l92.37-227.66h40.98l92.37,227.66ZM612.5,437.72l-36.43-90.41-43.91,108.63c19.19-13.98,41.63-18.21,67.32-18.21h13.01Z"/>
    <path class="cls-4" d="M695.77,512.85v-227.66h42.61v227.66h-42.61Z"/>
  </g>
</svg>