<?xml version="1.0" encoding="UTF-8"?>
<svg id="Layer_1" data-name="Layer 1" xmlns="http://www.w3.org/2000/svg" xmlns:xlink="http://www.w3.org/1999/xlink" viewBox="0 0 1235.69 484.38">
  <defs>
    <style>
      .cls-1 {
        fill: none;
      }

      .cls-2 {
        fill: #11274b;
      }

      .cls-3 {
        fill: url(#linear-gradient);
      }

      .cls-4 {
        fill: #11294d;
      }

      .cls-5 {
        fill: #1abbbc;
      }

      .cls-6 {
        clip-path: url(#clippath);
      }
    </style>
    <clipPath id="clippath">
      <path class="cls-1" d="M490.78,348.69l-1.36,2.28c-13.66,23.35-32.55,42.46-55.05,56.59h-.03c-30.95-5.61-63.07-18.12-92.33-44.95,17.59-1.38,34.62-6.64,49.44-15.81,28.64-17.67,65.12-17.85,95.22-.5l4.09,2.39Z"/>
    </clipPath>
    <linearGradient id="linear-gradient" x1="342.03" y1="368.26" x2="490.78" y2="368.26" gradientUnits="userSpaceOnUse">
      <stop offset="0" stop-color="#ef4f3f"/>
      <stop offset="1" stop-color="#f69b79"/>
    </linearGradient>
  </defs>
  <rect class="cls-2" x="535.1" y="46.01" width="8.85" height="398.27"/>
  <g>
    <g>
      <path class="cls-4" d="M491.29,141.72l-2.31,1.36c-30.53,17.62-68.39,17.4-98.76-.53-35.15-20.78-82.12-20.11-119.67,1.7-34.88,20.22-55.18,54.04-56.35,93.36-26.12-15.04-50.85-23.04-71.36-25.37,1.99-12.41,5.26-24.52,9.72-36.32l-.61-.56,1.41-1.57c21.87-64.85,82.15-109.99,157.47-117.86,75.69-7.89,144.32,24.1,179.1,83.51l1.36,2.28Z"/>
      <g class="cls-6">
        <polygon class="cls-3" points="488.83 328.95 486.87 328.95 484.91 328.95 482.96 328.95 481 328.95 479.04 328.95 477.08 328.95 475.13 328.95 473.17 328.95 471.21 328.95 469.25 328.95 467.3 328.95 465.34 328.95 463.38 328.95 461.42 328.95 459.47 328.95 457.51 328.95 455.55 328.95 453.59 328.95 451.64 328.95 449.68 328.95 447.72 328.95 445.77 328.95 443.81 328.95 441.85 328.95 439.89 328.95 437.94 328.95 435.98 328.95 434.02 328.95 432.06 328.95 430.11 328.95 428.15 328.95 426.19 328.95 424.23 328.95 422.28 328.95 420.32 328.95 418.36 328.95 416.41 328.95 414.45 328.95 412.49 328.95 410.53 328.95 408.58 328.95 406.62 328.95 404.66 328.95 402.7 328.95 400.75 328.95 398.79 328.95 396.83 328.95 394.87 328.95 392.92 328.95 390.96 328.95 389 328.95 387.04 328.95 385.09 328.95 383.13 328.95 381.17 328.95 379.22 328.95 377.26 328.95 375.3 328.95 373.34 328.95 371.39 328.95 369.43 328.95 367.47 328.95 365.51 328.95 363.56 328.95 361.6 328.95 359.64 328.95 357.68 328.95 355.73 328.95 353.77 328.95 351.81 328.95 349.86 328.95 347.9 328.95 345.94 328.95 343.98 328.95 342.03 328.95 342.03 407.57 343.98 407.57 345.94 407.57 347.9 407.57 349.86 407.57 351.81 407.57 353.77 407.57 355.73 407.57 357.68 407.57 359.64 407.57 361.6 407.57 363.56 407.57 365.51 407.57 367.47 407.57 369.43 407.57 371.39 407.57 373.34 407.57 375.3 407.57 377.26 407.57 379.22 407.57 381.17 407.57 383.13 407.57 385.09 407.57 387.04 407.57 389 407.57 390.96 407.57 392.92 407.57 394.87 407.57 396.83 407.57 398.79 407.57 400.75 407.57 402.7 407.57 404.66 407.57 406.62 407.57 408.58 407.57 410.53 407.57 412.49 407.57 414.45 407.57 416.41 407.57 418.36 407.57 420.32 407.57 422.28 407.57 424.23 407.57 426.19 407.57 428.15 407.57 430.11 407.57 432.06 407.57 434.02 407.57 435.98 407.57 437.94 407.57 439.89 407.57 441.85 407.57 443.81 407.57 445.77 407.57 447.72 407.57 449.68 407.57 451.64 407.57 453.59 407.57 455.55 407.57 457.51 407.57 459.47 407.57 461.42 407.57 463.38 407.57 465.34 407.57 467.3 407.57 469.25 407.57 471.21 407.57 473.17 407.57 475.13 407.57 477.08 407.57 479.04 407.57 481 407.57 482.96 407.57 484.91 407.57 486.87 407.57 488.83 407.57 490.78 407.57 490.78 328.95 488.83 328.95"/>
      </g>
      <g>
        <path class="cls-5" d="M434.38,407.57c-45.24-5.88-87.16-30.33-115.45-66.06-17.88-23.86-36.43-47.62-58.89-67.39-33.11-29.67-72.73-54.49-117.2-61.88,15.01,1.16,29.73,5.16,43.87,10.42,49.58,19.23,90.87,55.71,122.7,97.7,29.88,44.74,71.47,76.43,124.96,87.21h0Z"/>
        <path class="cls-5" d="M409.51,420.48c-35.96-8.14-68.82-28.93-93-56.74,0-.03-.02-1.36-.02-1.39,0,0,.86,2.31.86,2.31-10.01-11.68-18.74-23.39-28.75-34.44-28.32-32.53-66.93-64.62-102.73-82.39,0,0-.08,0-.08,0l-.51-.02-.34-.16c-14.07-6.72-28.86-12-44.4-14.15,15.05-.19,35.36,5.75,46.18,10.25,42.13,17.24,77.9,47.39,107.75,81.28,9.91,11.14,18.99,23.45,28.2,34.99,0,0,.88,1.11.88,1.11,0,.02-.01,1.21-.02,1.23,0,0-.86-2.31-.86-2.31,5.76,6.75,11.85,13.21,18.36,19.25,19.7,18.3,43.03,31.99,68.46,41.17h0Z"/>
        <path class="cls-5" d="M140,255.01c59.97-.32,121.27,56.78,158.53,99.63,15.68,19.33,31.9,39.71,52.04,54.59,9.98,7.68,20.74,14.38,32.01,20.31-30.22-10.86-56.73-31.09-77.25-55.66-39.15-45.45-103.49-111.66-165.32-118.87h0Z"/>
        <path class="cls-5" d="M142.1,276.61c43.91-1.48,86.79,34.47,117.53,62.55,16.41,15.53,31.84,32.09,46.35,49.39,7.18,8.64,14.46,16.91,22.61,24.57,8.04,7.72,16.75,14.77,25.87,21.38-15.09-7.69-28.97-17.95-41.28-29.65-12.09-11.84-23.09-24.56-35.09-36.43-9.65-9.97-19.87-19.73-29.99-29.23-28.95-25.71-66.2-58.42-106-62.59h0Z"/>
        <path class="cls-5" d="M146.72,298.21c56.29-2.22,124.74,76.7,159.92,116.54,6.18,7.25,12.85,14.1,19.77,20.8-8.03-5.32-15.51-11.48-22.6-18.09-20.03-19-41.84-40.94-62.14-59.63-26.48-23.67-58.65-54.51-94.95-59.62h0Z"/>
        <path class="cls-5" d="M154.03,319.97c41.64,1.09,86.18,49.18,113.63,77.95,10.56,11.37,20.86,22.95,30.77,34.97-24.38-19.27-46.2-41.26-69.01-62.24-22.59-20.23-45.11-42.84-75.39-50.68h0Z"/>
        <path class="cls-5" d="M164.33,342.85c38.11,5.22,78.04,52.52,100.75,81.88-8.9-6.55-17.18-13.76-25.28-21.09-12.1-10.9-23.79-22.3-35.91-33.09-12.12-10.69-24.55-20.95-39.56-27.7h0Z"/>
        <path class="cls-5" d="M186.01,373.51c10.86,3.61,19.81,11.28,27.17,19.81,2.43,2.87,4.67,5.91,6.49,9.34-12.87-7.78-23.57-18.08-33.66-29.15h0Z"/>
      </g>
    </g>
    <g>
      <path class="cls-5" d="M465.94,303.51h-23.51l-7.5-18.51h-14.84c-21.51,0-39.85,2.17-46.36,18.51h-23.51l47.36-116.73h21.01l47.36,116.73ZM426.75,264.99l-18.68-46.36-22.51,55.69c9.84-7.17,21.34-9.34,34.52-9.34h6.67Z"/>
      <path class="cls-5" d="M469.45,303.51v-116.73h21.84v116.73h-21.84Z"/>
    </g>
  </g>
  <g>
    <g>
      <path class="cls-5" d="M672.85,332.98h-17.56l-5.6-13.82h-11.08c-16.06,0-29.76,1.62-34.62,13.82h-17.56l35.37-87.17h15.69l35.37,87.17ZM643.59,304.21l-13.95-34.62-16.81,41.59c7.35-5.35,15.94-6.97,25.78-6.97h4.98Z"/>
      <path class="cls-5" d="M675.47,332.98v-87.17h16.31v87.17h-16.31Z"/>
      <path class="cls-4" d="M749.42,334.6c-5.78,0-11-1.02-15.64-3.06-4.65-2.04-8.46-4.97-11.44-8.79-2.98-3.81-4.87-8.36-5.67-13.64l15.4-2.28c1.08,4.48,3.33,7.94,6.72,10.36,3.4,2.42,7.27,3.63,11.6,3.63,2.42,0,4.77-.38,7.05-1.14,2.28-.76,4.15-1.88,5.61-3.36,1.46-1.48,2.2-3.31,2.2-5.48,0-.79-.12-1.56-.35-2.3-.24-.74-.62-1.44-1.17-2.09-.54-.65-1.31-1.26-2.3-1.84-.99-.58-2.25-1.1-3.77-1.57l-20.28-5.97c-1.52-.43-3.28-1.05-5.29-1.84-2.01-.79-3.95-1.93-5.83-3.42-1.88-1.48-3.44-3.44-4.69-5.88-1.25-2.44-1.87-5.52-1.87-9.25,0-5.24,1.32-9.6,3.96-13.07,2.64-3.47,6.16-6.05,10.57-7.75,4.41-1.7,9.29-2.53,14.64-2.49,5.39.07,10.2,1,14.42,2.77,4.23,1.77,7.77,4.35,10.63,7.73,2.86,3.38,4.92,7.51,6.18,12.39l-15.94,2.71c-.58-2.53-1.65-4.66-3.2-6.4-1.55-1.74-3.41-3.05-5.56-3.96-2.15-.9-4.4-1.39-6.75-1.46-2.31-.07-4.49.24-6.53.95-2.04.71-3.71,1.73-4.99,3.06-1.28,1.34-1.93,2.93-1.93,4.77,0,1.7.52,3.08,1.57,4.15,1.05,1.07,2.37,1.93,3.96,2.58,1.59.65,3.22,1.19,4.88,1.63l13.56,3.69c2.02.54,4.27,1.26,6.72,2.14,2.46.89,4.82,2.12,7.08,3.69,2.26,1.57,4.12,3.64,5.59,6.21,1.46,2.57,2.2,5.82,2.2,9.76,0,4.19-.88,7.85-2.63,10.98-1.75,3.13-4.11,5.71-7.08,7.75-2.96,2.04-6.32,3.57-10.06,4.58-3.74,1.01-7.6,1.52-11.58,1.52Z"/>
      <path class="cls-4" d="M809.07,334.71c-4.59,0-8.33-.78-11.23-2.33-2.89-1.55-5.14-3.53-6.75-5.91-1.61-2.39-2.76-4.87-3.44-7.46-.69-2.58-1.1-4.94-1.25-7.08-.14-2.13-.22-3.69-.22-4.66v-32.86h14.97v27.66c0,1.34.07,3.05.22,5.12.14,2.08.6,4.17,1.36,6.26.76,2.1,2,3.85,3.71,5.26,1.72,1.41,4.15,2.11,7.29,2.11,1.26,0,2.62-.2,4.07-.6,1.45-.4,2.8-1.17,4.07-2.3,1.26-1.14,2.3-2.82,3.12-5.04s1.22-5.14,1.22-8.76l8.46,4.01c0,4.63-.94,8.97-2.82,13.01-1.88,4.05-4.71,7.32-8.49,9.82-3.78,2.49-8.54,3.74-14.29,3.74ZM828.05,332.98v-19.41h-1.84v-39.15h14.86v58.57h-13.01Z"/>
      <path class="cls-4" d="M850.71,332.98v-58.57h13.01v19.41h1.84v39.15h-14.86ZM886.07,332.98v-34.6c0-3.87-.91-6.88-2.74-9.03-1.83-2.15-4.35-3.23-7.56-3.23s-5.54,1.06-7.4,3.17c-1.86,2.11-2.79,4.85-2.79,8.22l-6.18-4.34c0-3.83.96-7.27,2.87-10.3,1.92-3.04,4.49-5.44,7.73-7.21,3.23-1.77,6.86-2.66,10.87-2.66,4.59,0,8.36.98,11.31,2.93,2.95,1.95,5.12,4.55,6.53,7.81,1.41,3.25,2.11,6.83,2.11,10.74v38.5h-14.75ZM921.32,332.98v-34.6c0-3.87-.91-6.88-2.74-9.03-1.83-2.15-4.35-3.23-7.56-3.23-2.06,0-3.85.48-5.37,1.44-1.52.96-2.7,2.3-3.55,4.01-.85,1.72-1.27,3.7-1.27,5.94l-6.18-4.12c0-4.01.95-7.56,2.85-10.63,1.9-3.07,4.45-5.47,7.65-7.19,3.2-1.72,6.75-2.58,10.66-2.58,6.69,0,11.74,1.98,15.16,5.94,3.42,3.96,5.12,9.14,5.12,15.54v38.5h-14.75Z"/>
      <path class="cls-4" d="M944.64,332.98v-58.57h13.01v19.41h1.84v39.15h-14.86ZM979.99,332.98v-34.6c0-3.87-.91-6.88-2.74-9.03-1.83-2.15-4.35-3.23-7.56-3.23s-5.54,1.06-7.4,3.17c-1.86,2.11-2.79,4.85-2.79,8.22l-6.18-4.34c0-3.83.96-7.27,2.87-10.3,1.92-3.04,4.49-5.44,7.73-7.21,3.23-1.77,6.86-2.66,10.87-2.66,4.59,0,8.36.98,11.31,2.93,2.95,1.95,5.12,4.55,6.53,7.81,1.41,3.25,2.11,6.83,2.11,10.74v38.5h-14.75ZM1015.24,332.98v-34.6c0-3.87-.91-6.88-2.74-9.03-1.83-2.15-4.35-3.23-7.56-3.23-2.06,0-3.85.48-5.37,1.44-1.52.96-2.7,2.3-3.55,4.01-.85,1.72-1.27,3.7-1.27,5.94l-6.18-4.12c0-4.01.95-7.56,2.85-10.63,1.9-3.07,4.45-5.47,7.65-7.19,3.2-1.72,6.75-2.58,10.66-2.58,6.69,0,11.74,1.98,15.16,5.94,3.42,3.96,5.12,9.14,5.12,15.54v38.5h-14.75Z"/>
      <path class="cls-4" d="M1039.75,266.28v-13.02h14.75v13.02h-14.75ZM1039.75,332.98v-58.57h14.75v58.57h-14.75Z"/>
      <path class="cls-4" d="M1058.84,285.8v-11.39h41.65v11.39h-41.65ZM1100.49,332.98c-4.05.76-8.02,1.09-11.9,1-3.89-.09-7.36-.78-10.41-2.06-3.06-1.28-5.38-3.35-6.97-6.21-1.45-2.67-2.21-5.4-2.28-8.16-.07-2.77-.11-5.9-.11-9.41v-50h14.75v49.13c0,2.28.03,4.33.08,6.16.05,1.83.42,3.28,1.11,4.37,1.3,2.06,3.38,3.18,6.24,3.36,2.86.18,6.02.04,9.49-.43v12.26Z"/>
    </g>
    <g>
      <path class="cls-4" d="M624.51,232.66c-7.4,0-13.78-1.61-19.14-4.83-5.36-3.22-9.49-7.73-12.38-13.52-2.9-5.79-4.34-12.52-4.34-20.2s1.45-14.41,4.34-20.2c2.89-5.79,7.02-10.29,12.38-13.52,5.36-3.22,11.74-4.83,19.14-4.83,8.5,0,15.63,2.11,21.4,6.32,5.77,4.21,9.84,9.92,12.2,17.11l-14.08,3.91c-1.37-4.49-3.68-7.97-6.94-10.46-3.26-2.48-7.45-3.73-12.59-3.73-4.69,0-8.61,1.05-11.74,3.13-3.13,2.09-5.49,5.04-7.07,8.84-1.58,3.8-2.36,8.27-2.36,13.41s.79,9.61,2.36,13.41c1.58,3.8,3.93,6.75,7.07,8.84,3.13,2.09,7.05,3.13,11.74,3.13,5.14,0,9.34-1.25,12.59-3.75,3.25-2.5,5.57-5.98,6.94-10.43l14.08,3.91c-2.36,7.19-6.43,12.9-12.2,17.11-5.77,4.21-12.91,6.32-21.4,6.32Z"/>
      <path class="cls-4" d="M679.7,232.66c-3.97,0-7.34-.76-10.1-2.29-2.76-1.52-4.85-3.56-6.27-6.12-1.42-2.55-2.13-5.37-2.13-8.45,0-2.57.39-4.92,1.18-7.04.79-2.12,2.06-4,3.83-5.63,1.76-1.63,4.14-2.99,7.12-4.09,2.06-.75,4.5-1.42,7.35-2,2.84-.58,6.06-1.14,9.66-1.67,3.6-.53,7.55-1.12,11.87-1.77l-5.04,2.77c0-3.29-.79-5.7-2.36-7.25-1.58-1.54-4.21-2.31-7.91-2.31-2.06,0-4.2.5-6.42,1.49-2.23.99-3.79,2.76-4.68,5.29l-12.64-4.01c1.4-4.59,4.04-8.32,7.91-11.2,3.87-2.88,9.15-4.32,15.83-4.32,4.9,0,9.25.75,13.05,2.26,3.8,1.51,6.68,4.11,8.63,7.81,1.1,2.06,1.75,4.11,1.95,6.17.21,2.06.31,4.35.31,6.89v33.92h-12.23v-11.41l1.75,2.36c-2.71,3.73-5.63,6.43-8.76,8.09-3.13,1.66-7.1,2.49-11.9,2.49ZM682.68,221.67c2.57,0,4.74-.45,6.5-1.36,1.76-.91,3.17-1.94,4.21-3.11,1.04-1.16,1.76-2.14,2.13-2.93.72-1.51,1.14-3.26,1.26-5.27.12-2,.18-3.67.18-5.01l4.11,1.03c-4.15.69-7.5,1.26-10.07,1.72-2.57.46-4.64.88-6.22,1.26-1.58.38-2.96.79-4.16,1.23-1.37.55-2.48,1.14-3.31,1.77-.84.63-1.46,1.33-1.85,2.08-.39.75-.59,1.59-.59,2.52,0,1.27.32,2.36.95,3.26.63.91,1.53,1.6,2.7,2.08,1.16.48,2.55.72,4.16.72Z"/>
      <path class="cls-4" d="M719.07,231.12v-55.5h12.33v13.57l-1.34-1.75c.72-1.92,1.68-3.67,2.88-5.24,1.2-1.58,2.67-2.88,4.42-3.91,1.34-.82,2.79-1.46,4.37-1.93,1.58-.46,3.2-.75,4.88-.87,1.68-.12,3.36-.08,5.04.13v13.05c-1.54-.48-3.33-.64-5.37-.49-2.04.15-3.88.63-5.52,1.41-1.64.75-3.03,1.76-4.16,3.01-1.13,1.25-1.99,2.72-2.57,4.42-.58,1.7-.87,3.61-.87,5.73v28.37h-14.08Z"/>
      <path class="cls-4" d="M757.3,167.91v-12.33h13.98v12.33h-13.98ZM757.3,231.12v-55.5h13.98v55.5h-13.98Z"/>
      <path class="cls-4" d="M781.45,231.12v-74h14.08v35.97h-1.75v38.03h-12.33ZM808.79,232.66c-5.52,0-10.12-1.28-13.82-3.85-3.7-2.57-6.48-6.06-8.35-10.48-1.87-4.42-2.8-9.4-2.8-14.95s.93-10.54,2.77-14.95c1.85-4.42,4.57-7.91,8.17-10.48,3.6-2.57,8.03-3.85,13.31-3.85s9.94,1.27,13.88,3.8c3.94,2.54,7,6,9.17,10.41,2.18,4.4,3.26,9.43,3.26,15.08s-1.07,10.53-3.21,14.95c-2.14,4.42-5.13,7.91-8.97,10.48-3.84,2.57-8.31,3.85-13.41,3.85ZM806.53,220.23c3.01,0,5.48-.75,7.4-2.26,1.92-1.51,3.34-3.54,4.27-6.09.92-2.55,1.39-5.39,1.39-8.5s-.48-5.9-1.44-8.45c-.96-2.55-2.44-4.59-4.44-6.12-2-1.52-4.57-2.29-7.68-2.29-2.91,0-5.27.7-7.07,2.11-1.8,1.41-3.11,3.37-3.93,5.91-.82,2.54-1.23,5.48-1.23,8.84s.41,6.3,1.23,8.84c.82,2.54,2.17,4.51,4.03,5.91,1.87,1.41,4.36,2.11,7.48,2.11Z"/>
      <path class="cls-4" d="M840.45,231.12v-74h14.08v35.97h-1.75v38.03h-12.33ZM867.79,232.66c-5.52,0-10.12-1.28-13.82-3.85-3.7-2.57-6.48-6.06-8.35-10.48-1.87-4.42-2.8-9.4-2.8-14.95s.93-10.54,2.77-14.95c1.85-4.42,4.57-7.91,8.17-10.48,3.6-2.57,8.03-3.85,13.31-3.85s9.94,1.27,13.88,3.8c3.94,2.54,7,6,9.17,10.41,2.18,4.4,3.26,9.43,3.26,15.08s-1.07,10.53-3.21,14.95c-2.14,4.42-5.13,7.91-8.97,10.48-3.84,2.57-8.31,3.85-13.41,3.85ZM865.52,220.23c3.01,0,5.48-.75,7.4-2.26,1.92-1.51,3.34-3.54,4.27-6.09.92-2.55,1.39-5.39,1.39-8.5s-.48-5.9-1.44-8.45c-.96-2.55-2.44-4.59-4.44-6.12-2-1.52-4.57-2.29-7.68-2.29-2.91,0-5.27.7-7.07,2.11-1.8,1.41-3.11,3.37-3.93,5.91-.82,2.54-1.23,5.48-1.23,8.84s.41,6.3,1.23,8.84c.82,2.54,2.17,4.51,4.03,5.91,1.87,1.41,4.36,2.11,7.48,2.11Z"/>
      <path class="cls-4" d="M925.34,232.66c-5.69,0-10.7-1.23-15.03-3.67-4.33-2.45-7.73-5.82-10.18-10.12-2.45-4.3-3.67-9.22-3.67-14.77,0-6.06,1.2-11.34,3.6-15.83,2.4-4.49,5.7-7.97,9.92-10.46,4.21-2.48,9.06-3.73,14.54-3.73,5.82,0,10.77,1.37,14.85,4.11,4.08,2.74,7.09,6.6,9.04,11.56,1.95,4.97,2.64,10.81,2.06,17.52h-13.82v-5.14c0-5.65-.9-9.72-2.7-12.21-1.8-2.48-4.74-3.73-8.81-3.73-4.76,0-8.27,1.45-10.51,4.34-2.24,2.9-3.37,7.17-3.37,12.82,0,5.17,1.12,9.17,3.37,12,2.24,2.83,5.54,4.24,9.89,4.24,2.74,0,5.09-.6,7.04-1.8,1.95-1.2,3.44-2.93,4.47-5.19l13.98,4.01c-2.09,5.07-5.39,9.01-9.89,11.82-4.51,2.81-9.43,4.21-14.77,4.21ZM906.94,207.28v-10.38h36.79v10.38h-36.79Z"/>
      <path class="cls-4" d="M971.28,232.66c-3.97,0-7.34-.76-10.1-2.29-2.76-1.52-4.85-3.56-6.27-6.12-1.42-2.55-2.13-5.37-2.13-8.45,0-2.57.39-4.92,1.18-7.04.79-2.12,2.06-4,3.83-5.63,1.76-1.63,4.14-2.99,7.12-4.09,2.06-.75,4.5-1.42,7.35-2,2.84-.58,6.06-1.14,9.66-1.67,3.6-.53,7.55-1.12,11.87-1.77l-5.04,2.77c0-3.29-.79-5.7-2.36-7.25-1.58-1.54-4.21-2.31-7.91-2.31-2.06,0-4.2.5-6.42,1.49-2.23.99-3.79,2.76-4.68,5.29l-12.64-4.01c1.4-4.59,4.04-8.32,7.91-11.2,3.87-2.88,9.15-4.32,15.83-4.32,4.9,0,9.25.75,13.05,2.26,3.8,1.51,6.68,4.11,8.63,7.81,1.1,2.06,1.75,4.11,1.95,6.17.21,2.06.31,4.35.31,6.89v33.92h-12.23v-11.41l1.75,2.36c-2.71,3.73-5.63,6.43-8.76,8.09-3.13,1.66-7.1,2.49-11.9,2.49ZM974.26,221.67c2.57,0,4.74-.45,6.5-1.36,1.76-.91,3.17-1.94,4.21-3.11,1.04-1.16,1.76-2.14,2.13-2.93.72-1.51,1.14-3.26,1.26-5.27.12-2,.18-3.67.18-5.01l4.11,1.03c-4.15.69-7.5,1.26-10.07,1.72-2.57.46-4.64.88-6.22,1.26-1.58.38-2.96.79-4.16,1.23-1.37.55-2.48,1.14-3.31,1.77-.84.63-1.46,1.33-1.85,2.08-.39.75-.59,1.59-.59,2.52,0,1.27.32,2.36.95,3.26.63.91,1.53,1.6,2.7,2.08,1.16.48,2.55.72,4.16.72Z"/>
      <path class="cls-4" d="M1010.54,231.12v-55.5h12.44v18.4h1.75v37.1h-14.18ZM1048.47,231.12v-26.21c0-1.27-.07-2.89-.21-4.86-.14-1.97-.57-3.95-1.28-5.94-.72-1.99-1.89-3.65-3.52-4.99-1.63-1.34-3.93-2-6.91-2-1.2,0-2.48.19-3.85.57-1.37.38-2.66,1.1-3.85,2.18-1.2,1.08-2.18,2.66-2.95,4.75-.77,2.09-1.16,4.86-1.16,8.32l-8.02-3.8c0-4.38.89-8.5,2.67-12.33,1.78-3.84,4.46-6.94,8.04-9.3,3.58-2.36,8.09-3.55,13.54-3.55,4.35,0,7.9.74,10.64,2.21,2.74,1.47,4.87,3.34,6.4,5.6,1.52,2.26,2.61,4.62,3.26,7.07.65,2.45,1.04,4.69,1.18,6.71.14,2.02.21,3.49.21,4.42v31.14h-14.18Z"/>
    </g>
  </g>
</svg>